<?xml version="1.0" encoding="UTF-8"?>
<svg xmlns="http://www.w3.org/2000/svg" xmlns:xlink="http://www.w3.org/1999/xlink" width="480px" height="480px" viewBox="0 0 480 480" version="1.1">
<g id="surface135411">
<path style=" stroke:none;fill-rule:nonzero;fill:rgb(26.27451%,62.745098%,27.843137%);fill-opacity:1;" d="M 370 450 L 110 450 C 93.429688 450 80 436.570312 80 420 L 80 60 C 80 43.429688 93.429688 30 110 30 L 300 30 L 400 130 L 400 420 C 400 436.570312 386.570312 450 370 450 Z M 370 450 "/>
<path style=" stroke:none;fill-rule:nonzero;fill:rgb(78.431373%,90.196078%,78.823529%);fill-opacity:1;" d="M 400 130 L 300 130 L 300 30 Z M 400 130 "/>
<path style=" stroke:none;fill-rule:nonzero;fill:rgb(18.039216%,49.019608%,19.607843%);fill-opacity:1;" d="M 300 130 L 400 230 L 400 130 Z M 300 130 "/>
<path style=" stroke:none;fill-rule:nonzero;fill:rgb(90.980392%,96.078431%,91.372549%);fill-opacity:1;" d="M 310 230 L 150 230 L 150 370 L 330 370 L 330 230 Z M 170 250 L 210 250 L 210 270 L 170 270 Z M 170 290 L 210 290 L 210 310 L 170 310 Z M 170 330 L 210 330 L 210 350 L 170 350 Z M 310 350 L 230 350 L 230 330 L 310 330 Z M 310 310 L 230 310 L 230 290 L 310 290 Z M 310 270 L 230 270 L 230 250 L 310 250 Z M 310 270 "/>
</g>
</svg>
