<?xml version="1.0" encoding="UTF-8"?>
<svg xmlns="http://www.w3.org/2000/svg" xmlns:xlink="http://www.w3.org/1999/xlink" width="480px" height="480px" viewBox="0 0 480 480" version="1.1">
<g id="surface113575">
<path style=" stroke:none;fill-rule:evenodd;fill:rgb(78.039216%,78.039216%,78.039216%);fill-opacity:1;" d="M 380 50 C 316.980469 50 163.019531 50 100 50 C 88.949219 50 80 58.949219 80 70 C 80 100.46875 80 100 80 100 L 400 100 C 400 100 400 100.46875 400 70 C 400 58.949219 391.050781 50 380 50 Z M 140 80 C 134.480469 80 130 75.519531 130 70 C 130 64.480469 134.480469 60 140 60 C 145.519531 60 150 64.480469 150 70 C 150 75.519531 145.519531 80 140 80 Z M 340 80 C 334.480469 80 330 75.519531 330 70 C 330 64.480469 334.480469 60 340 60 C 345.519531 60 350 64.480469 350 70 C 350 75.519531 345.519531 80 340 80 Z M 340 80 "/>
<path style=" stroke:none;fill-rule:evenodd;fill:rgb(9.803922%,46.27451%,82.352941%);fill-opacity:1;" d="M 440 110 C 441.03125 104.179688 425.910156 90 420 90 C 348.890625 90 131.109375 90 60 90 C 50 90 38.96875 104.179688 40 110 C 48.230469 156.640625 70 260 70 260 L 410 260 C 410 260 431.769531 156.640625 440 110 Z M 440 110 "/>
<path style=" stroke:none;fill-rule:evenodd;fill:rgb(11.764706%,53.333333%,89.803922%);fill-opacity:1;" d="M 410 260 L 70 260 C 70 260 48.230469 363.359375 40 410 C 40 421.460938 47.921875 430 60 430 C 131.109375 430 348.890625 430 420 430 C 425.910156 430 440 425 440 410 C 431.769531 363.359375 410 260 410 260 Z M 410 260 "/>
<path style=" stroke:none;fill-rule:evenodd;fill:rgb(98.039216%,98.039216%,98.039216%);fill-opacity:1;" d="M 205.339844 260 C 215.179688 263.25 222.210938 268.5 226.390625 275.570312 C 230.71875 282.890625 232.890625 291.070312 232.890625 300.140625 C 232.890625 315.960938 227.699219 328.398438 217.328125 337.46875 C 206.960938 346.53125 193.699219 351.070312 177.558594 351.070312 C 161.738281 351.070312 148.640625 346.800781 138.261719 338.25 C 127.878906 329.699219 122.898438 318.109375 123.289062 303.488281 L 123.648438 302.769531 L 146.070312 302.769531 C 146.070312 311.910156 148.871094 319.191406 154.480469 324.589844 C 160.078125 330 167.78125 332.699219 177.558594 332.699219 C 187.5 332.699219 195.289062 330 200.929688 324.589844 C 206.570312 319.179688 209.398438 311.191406 209.398438 300.621094 C 209.398438 289.890625 206.898438 281.980469 201.890625 276.890625 C 196.878906 271.800781 188.96875 269.261719 178.160156 269.261719 L 157.648438 269.261719 L 157.648438 260 Z M 316.371094 260 L 339.859375 260 L 339.859375 348.558594 L 316.371094 348.558594 Z M 316.371094 260 "/>
<path style=" stroke:none;fill-rule:evenodd;fill:rgb(87.843137%,87.843137%,87.843137%);fill-opacity:1;" d="M 147.269531 220.359375 L 124.730469 220.359375 L 124.488281 219.640625 C 124.089844 206.519531 128.839844 195.371094 138.738281 186.191406 C 148.640625 177.011719 161.578125 172.421875 177.558594 172.421875 C 193.621094 172.421875 206.421875 176.691406 215.960938 185.238281 C 225.5 193.789062 230.269531 205.96875 230.269531 221.789062 C 230.269531 228.949219 228.101562 236.078125 223.769531 243.199219 C 219.441406 250.320312 212.941406 255.738281 204.269531 259.480469 L 205.339844 260 L 157.640625 260 L 157.640625 250.890625 L 178.148438 250.890625 C 188.570312 250.890625 195.941406 248.289062 200.269531 243.078125 C 204.601562 237.871094 206.769531 230.621094 206.769531 221.320312 C 206.769531 211.378906 204.308594 203.828125 199.378906 198.660156 C 194.449219 193.488281 187.179688 190.910156 177.558594 190.910156 C 168.421875 190.910156 161.078125 193.589844 155.558594 198.960938 C 150.21875 204.140625 147.460938 210.980469 147.269531 220.359375 Z M 339.859375 260 L 316.371094 260 L 316.371094 197.820312 L 280.828125 198.300781 L 280.828125 181.359375 L 339.859375 174.921875 Z M 339.859375 260 "/>
<path style=" stroke:none;fill-rule:evenodd;fill:rgb(9.803922%,46.27451%,82.352941%);fill-opacity:1;" d="M 60 90 C 45.621094 90 38.96875 104.179688 40 110 C 48.230469 156.640625 70 260 70 260 M 410 260 C 410 260 431.769531 156.640625 440 110 C 440 93.75 425.910156 90 420 90 "/>
</g>
</svg>
