<?xml version="1.0" encoding="UTF-8"?>
<svg xmlns="http://www.w3.org/2000/svg" xmlns:xlink="http://www.w3.org/1999/xlink" width="480px" height="480px" viewBox="0 0 480 480" version="1.1">
<g id="surface172447">
<path style=" stroke:none;fill-rule:nonzero;fill:rgb(0.784314%,46.666667%,74.117647%);fill-opacity:1;" d="M 198.46875 419.558594 C 142.179688 419.539062 85.878906 419.800781 29.589844 419.429688 C 1.039062 419.238281 -4.148438 412.429688 2.28125 384.179688 C 24.058594 288.378906 46.550781 192.75 67.851562 96.839844 C 73.558594 71.121094 85.878906 59.75 113.121094 60 C 225.699219 61.058594 338.289062 60.339844 450.878906 60.460938 C 479.121094 60.488281 483.859375 66.601562 477.519531 95.570312 C 456.941406 189.628906 436.230469 283.660156 415.160156 377.601562 C 407.269531 412.761719 398.191406 419.46875 361.628906 419.550781 C 307.238281 419.660156 252.851562 419.578125 198.46875 419.558594 Z M 198.46875 419.558594 "/>
<path style=" stroke:none;fill-rule:nonzero;fill:rgb(98.039216%,98.039216%,98.039216%);fill-opacity:1;" d="M 250.570312 239.21875 C 244.488281 232.351562 239.429688 226.550781 235.261719 221.898438 C 210.960938 194.621094 188.699219 169.199219 164.628906 143.210938 C 153.609375 131.320312 150.101562 119.769531 163.328125 108.03125 C 176.398438 96.429688 189.25 97.449219 201.238281 110.800781 C 234.640625 147.96875 268 185.179688 301.949219 221.839844 C 314.628906 235.53125 311.671875 244.839844 297.710938 254.988281 C 244.121094 293.941406 190.839844 333.320312 137.609375 372.769531 C 125.648438 381.640625 114.238281 383.859375 104.570312 370.761719 C 93.910156 356.308594 103.769531 347.710938 114.828125 339.621094 C 154.378906 310.691406 193.859375 281.640625 233.171875 252.371094 C 238.648438 248.300781 245.949219 242.671875 250.570312 239.21875 Z M 217.5 370 C 206.25 370 200 360 200 350 C 200 340 206.25 330 217.5 330 C 259.738281 330 278.621094 330 312.5 330 C 323.75 330 330 340 330 350 C 330 360 323.75 370 312.5 370 C 291.25 370 250 370 217.5 370 Z M 217.5 370 "/>
</g>
</svg>
