<?xml version="1.0" encoding="UTF-8"?>
<svg xmlns="http://www.w3.org/2000/svg" xmlns:xlink="http://www.w3.org/1999/xlink" width="480px" height="480px" viewBox="0 0 480 480" version="1.1">
<g id="surface163290">
<path style=" stroke:none;fill-rule:evenodd;fill:rgb(0%,32.941176%,61.568627%);fill-opacity:1;" d="M 229.03125 32.859375 C 235.820312 29.050781 244.179688 29.050781 250.960938 32.859375 C 284.511719 51.691406 385.46875 108.371094 419.03125 127.199219 C 425.820312 131 430 138.039062 430 145.660156 C 430 183.320312 430 296.671875 430 334.328125 C 430 341.949219 425.820312 348.988281 419.03125 352.800781 C 385.480469 371.628906 284.519531 428.308594 250.960938 447.140625 C 244.171875 450.949219 235.808594 450.949219 229.03125 447.140625 C 195.480469 428.308594 94.519531 371.628906 60.960938 352.800781 C 54.179688 348.988281 50 341.960938 50 334.339844 C 50 296.679688 50 183.328125 50 145.671875 C 50 138.050781 54.179688 131.011719 60.96875 127.199219 C 94.511719 108.371094 195.488281 51.691406 229.03125 32.859375 Z M 229.03125 32.859375 "/>
<path style=" stroke:none;fill-rule:evenodd;fill:rgb(0%,52.54902%,83.137255%);fill-opacity:1;" d="M 53.039062 344.039062 C 50.378906 340.480469 50 337.101562 50 332.550781 C 50 295.109375 50 182.410156 50 144.960938 C 50 137.378906 54.171875 130.378906 60.941406 126.601562 C 94.371094 107.878906 194.988281 51.53125 228.421875 32.800781 C 235.191406 29.011719 244.359375 29.089844 251.128906 32.878906 C 284.558594 51.601562 384.839844 107.46875 418.269531 126.191406 C 420.96875 127.710938 423.03125 129.539062 424.871094 131.949219 Z M 53.039062 344.039062 "/>
<path style=" stroke:none;fill-rule:evenodd;fill:rgb(100%,100%,100%);fill-opacity:1;" d="M 240 100 C 317.269531 100 380 162.730469 380 240 C 380 317.269531 317.269531 380 240 380 C 162.730469 380 100 317.269531 100 240 C 100 162.730469 162.730469 100 240 100 Z M 240 170 C 278.628906 170 310 201.359375 310 240 C 310 278.628906 278.628906 310 240 310 C 201.371094 310 170 278.628906 170 240 C 170 201.359375 201.359375 170 240 170 Z M 240 170 "/>
<path style=" stroke:none;fill-rule:evenodd;fill:rgb(0%,45.882353%,75.294118%);fill-opacity:1;" d="M 424.851562 132.050781 C 430.011719 136.878906 429.910156 144.160156 429.910156 149.890625 C 429.910156 187.839844 429.589844 295.78125 430 333.730469 C 430.039062 337.691406 428.730469 341.859375 426.769531 345 L 235.929688 240 Z M 424.851562 132.050781 "/>
<path style=" stroke:none;fill-rule:evenodd;fill:rgb(100%,100%,100%);fill-opacity:1;" d="M 310 210 L 330 210 L 330 270 L 310 270 Z M 380 210 L 400 210 L 400 270 L 380 270 Z M 380 210 "/>
<path style=" stroke:none;fill-rule:evenodd;fill:rgb(100%,100%,100%);fill-opacity:1;" d="M 290 230 L 350 230 L 350 250 L 290 250 Z M 360 230 L 420 230 L 420 250 L 360 250 Z M 360 230 "/>
</g>
</svg>
