<?xml version="1.0" encoding="UTF-8" standalone="yes"?>
<svg xmlns="http://www.w3.org/2000/svg" xmlns:xlink="http://www.w3.org/1999/xlink" width="500px" height="500px" viewBox="0 0 500 500" version="1.1" fill="#000000">
  <g id="surface163753">
    <path style=" stroke:none;fill-rule:nonzero;fill:#000000;fill-opacity:1;" d="M 66.679688 40 C 52.070312 40 40 52.070312 40 66.679688 L 40 433.320312 C 40 447.929688 52.070312 460 66.679688 460 L 433.320312 460 C 447.929688 460 460 447.96875 460 433.320312 L 460 66.679688 C 460 52.070312 447.96875 40 433.320312 40 Z M 66.679688 60 L 433.320312 60 C 437.03125 60 440 62.96875 440 66.679688 L 440 433.320312 C 440 437.03125 437.03125 440 433.320312 440 L 66.679688 440 C 62.96875 440 60 437.03125 60 433.320312 L 60 66.679688 C 60 62.96875 62.96875 60 66.679688 60 Z M 252.1875 197.695312 C 229.6875 197.695312 218.75 221.992188 218.75 249.140625 C 218.75 282.148438 230.703125 301.210938 250.351562 301.210938 C 251.25 301.210938 252.929688 302.109375 255.15625 303.28125 C 262.65625 307.8125 272.421875 312.890625 281.09375 316.523438 L 288.007812 301.640625 C 281.71875 299.257812 274.6875 296.992188 268.242188 294.140625 L 268.242188 293.398438 C 277.695312 288.28125 283.398438 272.695312 283.398438 247.65625 C 283.398438 224.570312 276.640625 197.695312 252.1875 197.695312 Z M 192.617188 198.007812 C 171.484375 198.007812 160.664062 211.523438 160.664062 227.695312 C 160.664062 236.875 165.9375 247.5 179.726562 255.9375 C 188.28125 261.445312 192.773438 265.078125 192.773438 272.382812 C 192.773438 279.023438 188.28125 283.789062 178.945312 283.789062 C 173.28125 283.789062 166.367188 282.148438 162.34375 279.882812 L 159.492188 296.875 C 162.773438 298.789062 170.703125 300.898438 178.828125 300.898438 C 198.632812 300.898438 212.304688 288.75 212.304688 270.3125 C 212.304688 259.648438 207.34375 249.453125 193.984375 241.367188 C 183.046875 234.765625 180.039062 231.601562 180.039062 225.625 C 180.039062 220.195312 184.0625 215.117188 192.460938 215.117188 C 198.164062 215.117188 202.539062 216.757812 205.351562 218.554688 L 208.515625 201.601562 C 205.507812 199.804688 199.21875 198.007812 192.617188 198.007812 Z M 295.820312 198.90625 L 295.820312 300 L 341.40625 300 L 341.40625 283.359375 L 315.46875 283.359375 L 315.46875 198.90625 Z M 251.289062 214.804688 C 260 214.804688 262.8125 229.648438 262.8125 248.554688 C 262.8125 269.570312 259.53125 284.101562 251.289062 284.101562 C 242.578125 284.101562 238.945312 269.570312 239.101562 249.023438 C 239.101562 229.960938 243.164062 214.804688 251.289062 214.804688 Z M 251.289062 214.804688 "/>
  </g>
</svg>
