<?xml version="1.0" encoding="UTF-8"?>
<svg xmlns="http://www.w3.org/2000/svg" xmlns:xlink="http://www.w3.org/1999/xlink" width="480px" height="480px" viewBox="0 0 480 480" version="1.1">
<g id="surface177100">
<path style=" stroke:none;fill-rule:nonzero;fill:rgb(98.039216%,98.039216%,98.039216%);fill-opacity:1;" d="M 225.859375 44.140625 L 58.789062 211.210938 C 53.160156 216.839844 50 224.46875 50 232.429688 L 50 410 C 50 421.050781 58.949219 430 70 430 L 410 430 C 421.050781 430 430 421.050781 430 410 L 430 232.429688 C 430 224.46875 426.839844 216.839844 421.210938 211.21875 L 254.140625 44.140625 C 246.328125 36.328125 233.671875 36.328125 225.859375 44.140625 Z M 225.859375 44.140625 "/>
<path style=" stroke:none;fill-rule:nonzero;fill:rgb(26.27451%,62.745098%,27.843137%);fill-opacity:1;" d="M 120 350 L 360 350 L 360 430 L 120 430 Z M 120 350 "/>
<path style=" stroke:none;fill-rule:nonzero;fill:rgb(98.431373%,75.294118%,17.647059%);fill-opacity:1;" d="M 130 240 L 130 430 L 70 430 C 59 430 50 421 50 410 L 50 240 Z M 130 240 "/>
<path style=" stroke:none;fill-rule:nonzero;fill:rgb(11.764706%,53.333333%,89.803922%);fill-opacity:1;" d="M 421.199219 211.199219 L 295.898438 85.898438 L 240.398438 141.398438 L 350 251 L 350 430 L 410 430 C 421 430 430 421 430 410 L 430 232.398438 C 430 224.5 426.800781 216.800781 421.199219 211.199219 Z M 421.199219 211.199219 "/>
<path style=" stroke:none;fill-rule:nonzero;fill:rgb(90.196078%,29.019608%,9.803922%);fill-opacity:1;" d="M 295.898438 85.898438 L 50 331.800781 L 50 232.398438 C 50 224.5 53.199219 216.800781 58.800781 211.199219 L 225.898438 44.101562 C 233.699219 36.300781 246.300781 36.300781 254.101562 44.101562 Z M 295.898438 85.898438 "/>
</g>
</svg>
