<?xml version="1.0" encoding="UTF-8"?>
<svg xmlns="http://www.w3.org/2000/svg" xmlns:xlink="http://www.w3.org/1999/xlink" width="480px" height="480px" viewBox="0 0 480 480" version="1.1">
<g id="surface177114">
<path style=" stroke:none;fill-rule:nonzero;fill:rgb(81.176471%,84.705882%,86.27451%);fill-opacity:1;" d="M 390 60 L 90 60 C 73.429688 60 60 73.429688 60 90 L 60 420 L 145.558594 350 L 390 350 C 406.558594 350 420 336.558594 420 320 L 420 90 C 420 73.429688 406.558594 60 390 60 Z M 390 60 "/>
<path style=" stroke:none;fill-rule:nonzero;fill:rgb(25.882353%,64.705882%,96.078431%);fill-opacity:1;" d="M 120 90 L 360 90 C 376.558594 90 390 103.429688 390 120 L 390 420 L 270 320 L 120 320 C 103.429688 320 90 306.558594 90 290 L 90 120 C 90 103.429688 103.429688 90 120 90 Z M 120 90 "/>
<path style=" stroke:none;fill-rule:nonzero;fill:rgb(73.333333%,87.058824%,98.431373%);fill-opacity:1;" d="M 310 190 C 310 201.039062 301.039062 210 290 210 C 278.960938 210 270 201.039062 270 190 C 270 178.960938 278.960938 170 290 170 C 301.039062 170 310 178.960938 310 190 M 330 246.671875 C 330 246.671875 318.929688 220 290 220 C 261.070312 220 250 246.671875 250 246.671875 L 250 260 L 330 260 Z M 330 246.671875 "/>
<path style=" stroke:none;fill-rule:nonzero;fill:rgb(89.019608%,94.901961%,99.215686%);fill-opacity:1;" d="M 240 170 C 240 186.558594 226.570312 200 210 200 C 193.429688 200 180 186.558594 180 170 C 180 153.441406 193.429688 140 210 140 C 226.570312 140 240 153.441406 240 170 M 270 243.339844 C 270 243.339844 253.398438 210 210 210 C 166.601562 210 150 243.339844 150 243.339844 L 150 260 L 270 260 Z M 270 243.339844 "/>
</g>
</svg>
