<?xml version="1.0" encoding="UTF-8"?>
<svg xmlns="http://www.w3.org/2000/svg" xmlns:xlink="http://www.w3.org/1999/xlink" width="480px" height="480px" viewBox="0 0 480 480" version="1.1">
<g id="surface177445">
<path style=" stroke:none;fill-rule:nonzero;fill:rgb(100%,70.196078%,0%);fill-opacity:1;" d="M 312 106 L 246 129 L 232 86 C 226 68 235 48 254 42 C 272 36 292 45 298 64 Z M 292 266 L 358 243 L 335 172 L 269 195 Z M 326 368 C 331 382 345 392 359 392 C 363 392 367 391 370 390 C 388 384 398 364 392 346 L 380 310 L 314 333 Z M 326 368 "/>
<path style=" stroke:none;fill-rule:nonzero;fill:rgb(0%,74.901961%,64.705882%);fill-opacity:1;" d="M 172 155 L 106 178 L 92 136 C 86 118 95 98 114 92 C 132 86 152 95 158 114 Z M 186 418 C 191 432 205 442 219 442 C 223 442 227 441 230 440 C 248 434 258 414 252 396 L 240 359 L 174 382 Z M 194 222 L 128 245 L 151 316 L 217 293 Z M 194 222 "/>
<path style=" stroke:none;fill-rule:nonzero;fill:rgb(0%,73.72549%,83.137255%);fill-opacity:1;" d="M 334 173 L 312 107 L 353 93 C 371 87 391 96 397 115 C 403 133 394 153 375 159 Z M 268 196 L 246 130 L 172 156 L 194 222 Z M 64 193 C 46 199 36 219 42 237 C 47 252 61 261 75 261 C 79 261 83 260 86 259 L 127 245 L 105 179 Z M 64 193 "/>
<path style=" stroke:none;fill-rule:nonzero;fill:rgb(91.372549%,11.764706%,38.823529%);fill-opacity:1;" d="M 151 315 L 173 381 L 126 397 C 122 398 118 399 115 399 C 100 399 87 390 82 375 C 76 357 85 337 104 331 Z M 437 253 C 431 235 411 225 393 231 L 358 243 L 380 310 L 416 298 C 434 291 444 271 437 253 Z M 217 292 L 239 358 L 313 332 L 291 266 Z M 217 292 "/>
<path style=" stroke:none;fill-rule:nonzero;fill:rgb(21.960784%,55.686275%,23.529412%);fill-opacity:1;" d="M 334 173 L 312 106 L 246 129 L 268 196 Z M 334 173 "/>
<path style=" stroke:none;fill-rule:nonzero;fill:rgb(0%,53.72549%,48.235294%);fill-opacity:1;" d="M 172 155 L 106 178 L 128 245 L 194 222 Z M 172 155 "/>
<path style=" stroke:none;fill-rule:nonzero;fill:rgb(74.901961%,21.176471%,4.705882%);fill-opacity:1;" d="M 292 266 L 314 333 L 380 310 L 358 243 Z M 292 266 "/>
<path style=" stroke:none;fill-rule:nonzero;fill:rgb(30.588235%,20.392157%,18.039216%);fill-opacity:1;" d="M 151 315 L 173 382 L 239 359 L 217 292 Z M 151 315 "/>
</g>
</svg>
